<?xml version="1.0" encoding="UTF-8"?>
<svg width="450" height="450" version="1.1" viewBox="0 0 119.06 119.06" xmlns="http://www.w3.org/2000/svg" xmlns:cc="http://creativecommons.org/ns#" xmlns:dc="http://purl.org/dc/elements/1.1/" xmlns:rdf="http://www.w3.org/1999/02/22-rdf-syntax-ns#">
 <defs>
  <filter id="filter892" x="-1.2023e-6" y="-1.1977e-6" width="1" height="1" color-interpolation-filters="sRGB">
   <feGaussianBlur stdDeviation="2.6735797e-05"/>
  </filter>
  <filter id="filter950" x="-1.2023e-6" y="-1.1977e-6" width="1" height="1" color-interpolation-filters="sRGB">
   <feGaussianBlur stdDeviation="2.6735796e-05"/>
  </filter>
 </defs>
 <metadata>
  <rdf:RDF>
   <cc:Work rdf:about="">
    <dc:format>image/svg+xml</dc:format>
    <dc:type rdf:resource="http://purl.org/dc/dcmitype/StillImage"/>
    <dc:title/>
   </cc:Work>
  </rdf:RDF>
 </metadata>
 <g opacity=".98361">
  <ellipse cx="60.101" cy="60.368" rx="59.032" ry="59.299" opacity="1" stroke-width=".15054"/>
  <g stroke="#000" stroke-width=".26458px">
   <path d="m105.64 25.324s23.338 24.003 6.8036 61.043c-1.5023 3.3654-1.9749-3.2218-2.8348-0.94494 0 0 3.3452-9.0624 4.1577-13.796 1.3947-8.1253 0.94494-13.796 0.94494-13.796l1.3229-1.1339c-0.23177-11.266-4.1107-19.115-10.394-31.372z" fill="#666"/>
   <path d="m55.009 2.3347s-27.02 3.5474-34.787 17.037c2.7863-2.705 5.5296-5.7884 12.271-9.3034 5.9953-3.126 14.578-5.4546 22.516-7.7332z" fill="#808080"/>
   <path d="m13.04 26.458c-6.5637 7.6298-13.114 25.411-11.056 39.404 0.92637 6.2971 0.75595-3.9687 0.75595-3.9687 0.14462-7.1062 1.2096-13.135 2.8396-18.519 1.9044-6.2901 4.58-11.699 7.4602-16.916z" fill="#999"/>
  </g>
 </g>
 <g opacity=".997">
  <path id="btnVerde" d="m56.948 4.8591c-28.251-0.20624-53.49 27.777-52.18 52.369 1.3263 2.1209 10.243 0.77683 15.376 0.86478 3.7602 0.06444 3.0016-0.18328 11.279-0.24722 0 0 1.6564 0.41784 1.8709-2.4722 0.17127-2.3072 3.5052-19.491 23.921-22.718 0 0 0.9466 0.09052 0.86862-2.8731-0.17744-6.7434-0.22602-11.492-0.20045-17.239 0.029288-6.5836 0.55766-6.519-0.93544-7.684z" fill="#008000" filter="url(#filter950)" stroke="#009400" stroke-width=".52917"/>
 </g>
 <g opacity=".996">
  <path id="btnRojo" d="m115.45 56.622c0.20623-28.251-27.777-53.49-52.369-52.18-2.1209 1.3263-0.77683 10.243-0.86478 15.376-0.06444 3.7602 0.18328 3.0016 0.24722 11.279 0 0-0.41784 1.6564 2.4722 1.8709 2.3072 0.17127 19.491 3.5052 22.718 23.921 0 0-0.09052 0.9466 2.8731 0.86862 6.7434-0.17744 11.492-0.22602 17.239-0.20045 6.5836 0.02929 6.519 0.55766 7.684-0.93544z" fill="#f00" stroke="#e34618" stroke-width=".52917"/>
 </g>
 <g>
  <path id="btnAzul" d="m63.501 115.13c28.251 0.20623 53.49-27.777 52.18-52.369-1.3263-2.1209-10.243-0.77683-15.376-0.86478-3.7602-0.06444-3.0016 0.18328-11.279 0.24722 0 0-1.6564-0.41784-1.8709 2.4722-0.17127 2.3072-3.5052 19.491-23.921 22.718 0 0-0.9466-0.09052-0.86862 2.8731 0.17744 6.7434 0.22602 11.492 0.20045 17.239-0.02929 6.5836-0.55766 6.519 0.93544 7.684z" fill="#00f" filter="url(#filter892)" opacity=".99" stroke="#0045d2" stroke-width=".52917"/>
 </g>
 <g>
  <path id="btnAmarillo" d="m4.8068 63.364c-0.20623 28.251 27.777 53.49 52.369 52.18 2.1209-1.3263 0.77683-10.243 0.86478-15.376 0.06444-3.7602-0.18328-3.0016-0.24722-11.279 0 0 0.41784-1.6564-2.4722-1.8709-2.3072-0.17127-19.491-3.5052-22.718-23.921 0 0 0.09052-0.9466-2.8731-0.86862-6.7434 0.17744-11.492 0.22602-17.239 0.20045-6.5836-0.02929-6.519-0.55766-7.684 0.93544z" fill="#ff0" stroke="#f5d913" stroke-width=".52917"/>
 </g>
</svg>
